<svg viewBox="0 0 147.76583 43.18234424528302" xmlns="http://www.w3.org/2000/svg" style="max-height: 500px" width="147.76583" height="43.18234424528302">
  <g data-name="Capa 2" id="Capa_2">
    <g data-name="Capa 1" id="Capa_1-2">
      <path fill="#e52621" d="M10.24483,12.65859c0-1.13906-.00522-2.22335.00446-3.30751a2.358,2.358,0,0,1,.09853-.638,1.39485,1.39485,0,0,1,1.34485-1.00886C12.71672,7.7,13.7409,7.695,14.76481,7.708c.26966.00343.36372-.069.357-.352-.01882-.79373-.00465-1.58821-.00678-2.38239a1.52557,1.52557,0,0,1,.56281-1.29156,1.419,1.419,0,0,1,.75021-.29885c.96014-.03413,1.92554.03659,2.88264-.027a1.43125,1.43125,0,0,1,1.44412,1.39647c.016,2.13164.01154,4.26349.00254,6.39522a1.62338,1.62338,0,0,1-1.40082,1.43319c-.66495.09755-1.3495.05585-2.02437.09382a6.04707,6.04707,0,0,0-.98252.12543.87488.87488,0,0,0-.72543.89256c-.01843,1.47268-.03556,2.94589-.01475,4.41835a1.394,1.394,0,0,0,1.496,1.31556c.846.01834,1.69284-.00242,2.53914.00816.22656.00283.25677-.10729.254-.28917-.00914-.60581-.02172-1.2119-.01281-1.81759a1.52,1.52,0,0,1,1.27944-1.53132c.70774-.0304,1.41639-.0509,2.12466-.05145a2.89447,2.89447,0,0,1,.762.11331,1.37785,1.37785,0,0,1,1.03548,1.38734q.00049,6.70878.00239,13.41755a1.55,1.55,0,0,1-1.48808,1.5659c-.84434.00513-1.68909.02213-2.5326.05849a.8825.8825,0,0,0-.93294.9781c-.00777.94042-.03588,1.8825.00734,2.821a1.611,1.611,0,0,1-1.73964,1.717q-4.82776-.0033-9.65553-.00084c-.73148,0-1.463.00238-2.19444-.00072a1.55629,1.55629,0,0,1-1.59437-1.59462c-.00036-.91958.00545-1.83923-.00455-2.7587a1.989,1.989,0,0,0-.09857-.57457.72218.72218,0,0,0-.83978-.61835c-.82545-.00606-1.65117-.01825-2.47638-.00421a1.5224,1.5224,0,0,1-1.5233-1.53506C-.0106,27.40481.00207,24.09219.0092,20.77974a1.43434,1.43434,0,0,1,1.47668-1.34759c.78367-.00635,1.56744-.00119,2.35117-.00151A1.02645,1.02645,0,0,0,4.95859,18.3067c.00286-1.30622.03-2.61331-.00833-3.91841a1.68266,1.68266,0,0,1,1.73054-1.728c1.07626-.00817,2.15263-.00175,3.229-.00165Z"/>
      <g>
        <path fill="#fff" d="M45.63741,17.11719H41.16622V37.19238H36.1257V17.11719H33.27609V13.04H36.1257v-1.709q0-4.16454,2.21337-6.07128Q40.55172,3.354,45.28634,3.35352V7.51758a4.69287,4.69287,0,0,0-3.19971.85449,3.92032,3.92032,0,0,0-.92041,2.959V13.04h4.47119Z"/>
        <path fill="#fff" d="M51.94845,4.75586V37.19238H46.95187V4.75586Z"/>
        <path fill="#fff" d="M55.25753,18.56348a11.01922,11.01922,0,0,1,9.88428-5.918,10.544,10.544,0,0,1,4.97461,1.11816,10.10256,10.10256,0,0,1,3.39746,2.78321V13.04h5.04053V37.19238H73.51388V33.59766A9.93339,9.93339,0,0,1,70.051,36.44727a11.20766,11.20766,0,0,1-10.69531-.46,11.33358,11.33358,0,0,1-4.09815-4.47168,13.74712,13.74712,0,0,1-1.51269-6.50878A13.36591,13.36591,0,0,1,55.25753,18.56348Zm17.22608,2.1914A7.22822,7.22822,0,0,0,69.7878,17.9502a7.05726,7.05726,0,0,0-3.59423-.96485,7.08647,7.08647,0,0,0-6.29,3.7041,8.6173,8.6173,0,0,0-1.02979,4.31739,8.98872,8.98872,0,0,0,1.02979,4.38281,7.25966,7.25966,0,0,0,2.71777,2.87109,6.96094,6.96094,0,0,0,3.57227.98633,7.05632,7.05632,0,0,0,3.59423-.96387,7.19325,7.19325,0,0,0,2.69581-2.82715,8.87485,8.87485,0,0,0,1.03027-4.36132A8.74874,8.74874,0,0,0,72.48361,20.75488Z"/>
        <path fill="#fff" d="M116.36007,13.8291a8.553,8.553,0,0,1,3.55078,3.50684,11.38557,11.38557,0,0,1,1.293,5.61035V37.19238H116.2507v-13.501a7.01016,7.01016,0,0,0-1.62207-4.97461,5.77172,5.77172,0,0,0-4.42676-1.73145,5.8428,5.8428,0,0,0-4.44922,1.73145,6.95074,6.95074,0,0,0-1.64356,4.97461v13.501H99.156v-13.501A7.01016,7.01016,0,0,0,97.5339,18.7168a5.77281,5.77281,0,0,0-4.42725-1.73145,5.84245,5.84245,0,0,0-4.44873,1.73145,6.9509,6.9509,0,0,0-1.644,4.97461v13.501H82.0173V13.04h4.99658v2.76172a8.31233,8.31233,0,0,1,3.1123-2.32324,9.87316,9.87316,0,0,1,4.03272-.833,10.74614,10.74614,0,0,1,5.17236,1.22754,8.39343,8.39343,0,0,1,3.50635,3.55078,8.10091,8.10091,0,0,1,3.41894-3.48438,10.109,10.109,0,0,1,4.99708-1.29394A10.8308,10.8308,0,0,1,116.36007,13.8291Z"/>
        <path fill="#fff" d="M124.29366,18.56348a11.01922,11.01922,0,0,1,9.88428-5.918,10.544,10.544,0,0,1,4.97461,1.11816A10.10246,10.10246,0,0,1,142.55,16.54688V13.04h5.04053V37.19238H142.55V33.59766a9.9333,9.9333,0,0,1-3.46289,2.84961,11.20766,11.20766,0,0,1-10.69531-.46,11.33365,11.33365,0,0,1-4.09815-4.47168,13.74712,13.74712,0,0,1-1.51269-6.50878A13.36591,13.36591,0,0,1,124.29366,18.56348Zm17.22608,2.1914a7.22819,7.22819,0,0,0-2.6958-2.80468,7.0573,7.0573,0,0,0-3.59424-.96485,7.08647,7.08647,0,0,0-6.29,3.7041,8.6173,8.6173,0,0,0-1.02978,4.31739,8.98871,8.98871,0,0,0,1.02978,4.38281,7.25972,7.25972,0,0,0,2.71777,2.87109,6.961,6.961,0,0,0,3.57227.98633,7.05636,7.05636,0,0,0,3.59424-.96387,7.19322,7.19322,0,0,0,2.6958-2.82715A8.87485,8.87485,0,0,0,142.55,25.09473,8.74874,8.74874,0,0,0,141.51974,20.75488Z"/>
      </g>
    </g>
  </g>
</svg>